<?xml version="1.0" standalone="no"?>
<!DOCTYPE svg PUBLIC "-//W3C//DTD SVG 20010904//EN"
 "http://www.w3.org/TR/2001/REC-SVG-20010904/DTD/svg10.dtd">
<svg version="1.0" xmlns="http://www.w3.org/2000/svg"
 width="2304.000000pt" height="2304.000000pt" viewBox="0 0 2304.000000 2304.000000"
 preserveAspectRatio="xMidYMid meet">
<metadata>
Created by potrace 1.14, written by Peter Selinger 2001-2017
</metadata>
<g transform="translate(0.000000,2304.000000) scale(0.100000,-0.100000)"
fill="#000000" stroke="none">
<path d="M11438 15674 c-4 -3 -21 -7 -40 -9 -18 -2 -34 -4 -35 -5 -2 -2 -6 -3
-10 -4 -41 -9 -204 -80 -243 -106 -8 -6 -26 -15 -40 -20 -47 -20 -95 -45 -98
-52 -2 -5 -9 -8 -15 -8 -6 0 -84 -36 -173 -81 -90 -44 -166 -80 -170 -79 -4 1
-10 -2 -13 -7 -3 -4 -67 -38 -141 -75 -74 -36 -267 -132 -427 -212 -161 -80
-293 -142 -293 -138 0 4 -4 2 -8 -4 -5 -8 -625 -321 -652 -329 -10 -3 -96 -46
-110 -55 -8 -6 -78 -40 -155 -77 -77 -36 -143 -70 -146 -75 -3 -6 -8 -9 -10
-9 -10 3 -69 -24 -69 -31 0 -4 -8 -8 -18 -8 -10 0 -22 -4 -28 -9 -5 -5 -112
-62 -239 -126 -255 -131 -298 -158 -374 -238 -20 -21 -40 -46 -45 -55 -5 -10
-12 -19 -15 -22 -5 -5 -11 -14 -41 -67 -38 -71 -58 -133 -67 -218 -8 -74 -6
-3991 2 -4050 22 -157 121 -330 247 -430 38 -30 123 -78 193 -110 44 -20 296
-144 561 -276 264 -131 485 -239 491 -239 6 0 13 -3 15 -7 3 -8 432 -223 445
-224 5 0 16 -8 26 -16 9 -9 17 -12 17 -8 0 4 8 1 18 -8 10 -10 22 -14 25 -10
4 3 7 1 7 -5 0 -7 3 -11 8 -10 4 1 117 -54 252 -122 135 -68 247 -124 250
-125 14 -2 185 -91 188 -97 2 -5 8 -8 14 -8 6 0 177 -83 382 -184 204 -102
398 -192 431 -202 44 -13 94 -18 185 -18 69 0 134 3 145 6 58 15 165 59 243
100 40 21 79 38 87 38 7 0 15 4 17 8 4 10 450 232 465 232 6 0 13 4 15 8 4 10
970 492 985 492 6 0 13 4 15 8 4 11 127 72 144 72 8 0 14 4 14 9 0 8 51 32 73
35 4 1 12 8 17 16 5 8 10 12 10 8 0 -4 34 10 75 32 42 22 82 40 90 40 7 0 15
4 17 8 4 9 729 372 742 371 5 0 12 3 15 9 3 5 62 37 131 71 69 34 134 67 145
74 33 20 129 100 148 125 10 12 25 29 33 36 8 8 14 19 14 25 0 6 4 11 8 11 22
0 93 178 108 270 11 67 11 4030 0 4030 -5 0 -7 3 -4 6 18 18 -76 268 -116 309
-6 7 -28 32 -49 57 -20 25 -61 64 -90 86 -28 22 -304 167 -611 321 -308 155
-565 286 -573 292 -7 6 -13 9 -13 5 0 -6 -105 48 -125 64 -5 5 -14 9 -20 11
-13 3 -122 56 -325 159 -91 46 -171 85 -178 86 -7 1 -20 8 -28 15 -13 10 -110
60 -124 64 -3 0 -16 7 -30 15 -31 17 -203 103 -210 105 -3 0 -16 7 -30 15 -40
23 -140 69 -144 67 -1 -1 -10 4 -19 12 -15 12 -133 73 -147 75 -3 1 -10 5 -16
9 -32 20 -164 85 -164 81 0 -3 -12 3 -27 13 -59 40 -516 259 -530 254 -2 -1
-4 -1 -5 0 -40 12 -251 23 -260 13z m-966 -2293 c73 -38 162 -84 198 -103 36
-19 112 -59 170 -88 58 -29 112 -58 120 -65 8 -6 40 -22 70 -35 30 -14 57 -27
60 -30 3 -3 52 -30 110 -59 58 -30 146 -75 195 -101 160 -84 379 -197 438
-228 31 -16 64 -35 72 -42 8 -7 15 -9 15 -6 0 4 12 -1 28 -12 15 -10 43 -25
62 -32 19 -8 37 -17 40 -20 3 -3 43 -26 90 -49 47 -24 126 -65 175 -91 50 -26
153 -80 230 -120 136 -70 216 -112 455 -237 63 -34 173 -91 245 -127 71 -37
135 -72 142 -78 7 -6 13 -7 13 -2 0 5 4 5 8 -1 4 -5 68 -41 142 -80 74 -38
174 -90 223 -114 48 -25 86 -50 84 -55 -2 -5 -41 -28 -87 -51 -47 -24 -90 -48
-96 -53 -6 -5 -21 -13 -35 -17 -13 -4 -32 -14 -41 -23 -10 -8 -18 -12 -18 -7
0 4 -6 3 -12 -3 -15 -11 -157 -87 -523 -277 -60 -31 -116 -61 -122 -67 -7 -6
-13 -7 -13 -3 0 4 -7 2 -15 -5 -15 -13 -187 -103 -365 -192 -58 -29 -107 -56
-110 -59 -3 -3 -32 -19 -65 -36 -175 -89 -260 -134 -269 -143 -5 -5 -18 -10
-27 -10 -10 0 -19 -3 -21 -7 -1 -5 -52 -33 -113 -64 -60 -31 -150 -78 -200
-104 -49 -26 -133 -70 -185 -97 -52 -28 -101 -55 -107 -60 -7 -6 -13 -7 -13
-3 0 4 -6 3 -12 -2 -7 -6 -58 -34 -113 -63 -55 -29 -106 -57 -112 -63 -7 -5
-13 -6 -13 -1 0 5 -4 5 -8 -1 -4 -5 -38 -26 -77 -46 -153 -77 -260 -134 -265
-139 -3 -3 -25 -14 -50 -25 -25 -11 -48 -24 -52 -30 -5 -6 -8 -6 -8 0 0 6 -3
6 -8 -1 -4 -6 -54 -34 -112 -63 -58 -29 -112 -57 -120 -62 -8 -5 -43 -24 -77
-43 -56 -31 -64 -33 -71 -18 -6 13 -8 427 -2 427 1 0 2 26 3 58 1 31 -2 57 -7
57 -5 0 -2 8 5 17 12 14 12 16 0 8 -10 -6 -12 -4 -6 5 5 8 10 171 11 364 1
193 5 605 9 916 20 1848 19 1811 3 1821 -7 5 -10 9 -6 9 4 0 67 -31 140 -69z"/>
</g>
</svg>
